<?xml version="1.0" standalone="no"?>
<!DOCTYPE svg PUBLIC "-//W3C//DTD SVG 20010904//EN"
 "http://www.w3.org/TR/2001/REC-SVG-20010904/DTD/svg10.dtd">
<svg version="1.0" xmlns="http://www.w3.org/2000/svg"
 width="113.000000pt" height="80.000000pt" viewBox="0 0 113.000000 80.000000"
 preserveAspectRatio="xMidYMid meet">

<g transform="translate(0.000000,80.000000) scale(0.100000,-0.100000)"
fill="#000000" stroke="none">
<path d="M200 595 l-195 -195 195 -195 195 -195 195 195 195 195 -195 195
-195 195 -195 -195z m302 -82 c54 -54 98 -102 98 -108 0 -6 -47 -57 -105 -115
l-105 -105 -107 108 -108 107 105 105 c58 58 109 105 115 105 5 0 54 -44 107
-97z"/>
<path d="M710 700 l0 -85 107 -107 108 -108 -108 -108 -108 -108 3 -87 3 -87
193 192 192 193 -195 195 -195 195 0 -85z"/>
</g>
</svg>
